<mxfile host="app.diagrams.net" agent="Mozilla/5.0 (X11; Linux x86_64; rv:128.0) Gecko/20100101 Firefox/128.0" version="24.9.1">
  <diagram name="Page-1" id="lXaVr4ffHn5J0u4nvtV6">
    <mxGraphModel dx="608" dy="348" grid="1" gridSize="10" guides="1" tooltips="1" connect="1" arrows="1" fold="1" page="1" pageScale="1" pageWidth="850" pageHeight="1100" math="0" shadow="0">
      <root>
        <mxCell id="0" />
        <mxCell id="1" parent="0" />
        <mxCell id="hbV3hxeHcZxjDUzCkbi2-3" value="&lt;div&gt;&lt;font style=&quot;font-size: 8px;&quot;&gt;INBUF&lt;/font&gt;&lt;/div&gt;&lt;div&gt;&lt;font style=&quot;font-size: 8px;&quot;&gt;SRAM&lt;br&gt;&lt;/font&gt;&lt;/div&gt;" style="whiteSpace=wrap;html=1;aspect=fixed;" vertex="1" parent="1">
          <mxGeometry x="420" y="590" width="40" height="40" as="geometry" />
        </mxCell>
        <mxCell id="hbV3hxeHcZxjDUzCkbi2-4" value="&lt;div&gt;&lt;font style=&quot;font-size: 8px;&quot;&gt;KBUF&lt;/font&gt;&lt;/div&gt;&lt;div&gt;&lt;font style=&quot;font-size: 8px;&quot;&gt;SRAM&lt;br&gt;&lt;/font&gt;&lt;/div&gt;" style="whiteSpace=wrap;html=1;aspect=fixed;" vertex="1" parent="1">
          <mxGeometry x="460" y="380" width="40" height="40" as="geometry" />
        </mxCell>
        <mxCell id="hbV3hxeHcZxjDUzCkbi2-5" value="&lt;div&gt;OUT&lt;/div&gt;&lt;div&gt;BUF&lt;/div&gt;" style="whiteSpace=wrap;html=1;aspect=fixed;" vertex="1" parent="1">
          <mxGeometry x="610" y="440" width="40" height="40" as="geometry" />
        </mxCell>
        <mxCell id="hbV3hxeHcZxjDUzCkbi2-22" value="" style="endArrow=openThin;html=1;rounded=0;fontSize=5;endFill=0;endSize=4;" edge="1" parent="1">
          <mxGeometry width="50" height="50" relative="1" as="geometry">
            <mxPoint x="265" y="439.52" as="sourcePoint" />
            <mxPoint x="325" y="439.52" as="targetPoint" />
          </mxGeometry>
        </mxCell>
        <mxCell id="hbV3hxeHcZxjDUzCkbi2-23" value="in_valid_1" style="edgeLabel;html=1;align=center;verticalAlign=middle;resizable=0;points=[];fontSize=5;" vertex="1" connectable="0" parent="hbV3hxeHcZxjDUzCkbi2-22">
          <mxGeometry x="-0.4066" relative="1" as="geometry">
            <mxPoint as="offset" />
          </mxGeometry>
        </mxCell>
        <mxCell id="hbV3hxeHcZxjDUzCkbi2-24" value="1" style="edgeLabel;html=1;align=center;verticalAlign=middle;resizable=0;points=[];fontSize=5;" vertex="1" connectable="0" parent="hbV3hxeHcZxjDUzCkbi2-22">
          <mxGeometry x="0.4462" y="-1" relative="1" as="geometry">
            <mxPoint as="offset" />
          </mxGeometry>
        </mxCell>
        <mxCell id="hbV3hxeHcZxjDUzCkbi2-25" value="" style="endArrow=openThin;html=1;rounded=0;fontSize=5;endFill=0;endSize=4;" edge="1" parent="1">
          <mxGeometry width="50" height="50" relative="1" as="geometry">
            <mxPoint x="325" y="449.52" as="sourcePoint" />
            <mxPoint x="265" y="449.52" as="targetPoint" />
          </mxGeometry>
        </mxCell>
        <mxCell id="hbV3hxeHcZxjDUzCkbi2-26" value="in_ready_1" style="edgeLabel;html=1;align=center;verticalAlign=middle;resizable=0;points=[];fontSize=5;" vertex="1" connectable="0" parent="hbV3hxeHcZxjDUzCkbi2-25">
          <mxGeometry x="-0.4066" relative="1" as="geometry">
            <mxPoint as="offset" />
          </mxGeometry>
        </mxCell>
        <mxCell id="hbV3hxeHcZxjDUzCkbi2-27" value="1" style="edgeLabel;html=1;align=center;verticalAlign=middle;resizable=0;points=[];fontSize=5;" vertex="1" connectable="0" parent="hbV3hxeHcZxjDUzCkbi2-25">
          <mxGeometry x="0.4462" y="-1" relative="1" as="geometry">
            <mxPoint as="offset" />
          </mxGeometry>
        </mxCell>
        <mxCell id="hbV3hxeHcZxjDUzCkbi2-28" value="" style="endArrow=openThin;html=1;rounded=0;fontSize=5;endFill=0;endSize=4;" edge="1" parent="1">
          <mxGeometry width="50" height="50" relative="1" as="geometry">
            <mxPoint x="325" y="459.52" as="sourcePoint" />
            <mxPoint x="265" y="459.52" as="targetPoint" />
          </mxGeometry>
        </mxCell>
        <mxCell id="hbV3hxeHcZxjDUzCkbi2-29" value="out_valid_1" style="edgeLabel;html=1;align=center;verticalAlign=middle;resizable=0;points=[];fontSize=5;" vertex="1" connectable="0" parent="hbV3hxeHcZxjDUzCkbi2-28">
          <mxGeometry x="-0.4066" relative="1" as="geometry">
            <mxPoint as="offset" />
          </mxGeometry>
        </mxCell>
        <mxCell id="hbV3hxeHcZxjDUzCkbi2-30" value="1" style="edgeLabel;html=1;align=center;verticalAlign=middle;resizable=0;points=[];fontSize=5;" vertex="1" connectable="0" parent="hbV3hxeHcZxjDUzCkbi2-28">
          <mxGeometry x="0.4462" y="-1" relative="1" as="geometry">
            <mxPoint as="offset" />
          </mxGeometry>
        </mxCell>
        <mxCell id="hbV3hxeHcZxjDUzCkbi2-34" value="" style="endArrow=openThin;html=1;rounded=0;fontSize=5;endFill=0;endSize=4;" edge="1" parent="1">
          <mxGeometry width="50" height="50" relative="1" as="geometry">
            <mxPoint x="265" y="499.52" as="sourcePoint" />
            <mxPoint x="325" y="499.52" as="targetPoint" />
          </mxGeometry>
        </mxCell>
        <mxCell id="hbV3hxeHcZxjDUzCkbi2-35" value="in_valid_2" style="edgeLabel;html=1;align=center;verticalAlign=middle;resizable=0;points=[];fontSize=5;" vertex="1" connectable="0" parent="hbV3hxeHcZxjDUzCkbi2-34">
          <mxGeometry x="-0.4066" relative="1" as="geometry">
            <mxPoint as="offset" />
          </mxGeometry>
        </mxCell>
        <mxCell id="hbV3hxeHcZxjDUzCkbi2-36" value="32" style="edgeLabel;html=1;align=center;verticalAlign=middle;resizable=0;points=[];fontSize=5;" vertex="1" connectable="0" parent="hbV3hxeHcZxjDUzCkbi2-34">
          <mxGeometry x="0.4462" y="-1" relative="1" as="geometry">
            <mxPoint as="offset" />
          </mxGeometry>
        </mxCell>
        <mxCell id="hbV3hxeHcZxjDUzCkbi2-37" value="" style="endArrow=openThin;html=1;rounded=0;fontSize=5;endFill=0;endSize=4;" edge="1" parent="1">
          <mxGeometry width="50" height="50" relative="1" as="geometry">
            <mxPoint x="325" y="509.52" as="sourcePoint" />
            <mxPoint x="265" y="509.52" as="targetPoint" />
          </mxGeometry>
        </mxCell>
        <mxCell id="hbV3hxeHcZxjDUzCkbi2-38" value="in_ready_2" style="edgeLabel;html=1;align=center;verticalAlign=middle;resizable=0;points=[];fontSize=5;" vertex="1" connectable="0" parent="hbV3hxeHcZxjDUzCkbi2-37">
          <mxGeometry x="-0.4066" relative="1" as="geometry">
            <mxPoint as="offset" />
          </mxGeometry>
        </mxCell>
        <mxCell id="hbV3hxeHcZxjDUzCkbi2-39" value="32" style="edgeLabel;html=1;align=center;verticalAlign=middle;resizable=0;points=[];fontSize=5;" vertex="1" connectable="0" parent="hbV3hxeHcZxjDUzCkbi2-37">
          <mxGeometry x="0.4462" y="-1" relative="1" as="geometry">
            <mxPoint as="offset" />
          </mxGeometry>
        </mxCell>
        <mxCell id="hbV3hxeHcZxjDUzCkbi2-40" value="" style="endArrow=openThin;html=1;rounded=0;fontSize=5;endFill=0;endSize=4;" edge="1" parent="1">
          <mxGeometry width="50" height="50" relative="1" as="geometry">
            <mxPoint x="325" y="519.52" as="sourcePoint" />
            <mxPoint x="265" y="519.52" as="targetPoint" />
          </mxGeometry>
        </mxCell>
        <mxCell id="hbV3hxeHcZxjDUzCkbi2-41" value="out_valid_2" style="edgeLabel;html=1;align=center;verticalAlign=middle;resizable=0;points=[];fontSize=5;" vertex="1" connectable="0" parent="hbV3hxeHcZxjDUzCkbi2-40">
          <mxGeometry x="-0.4066" relative="1" as="geometry">
            <mxPoint as="offset" />
          </mxGeometry>
        </mxCell>
        <mxCell id="hbV3hxeHcZxjDUzCkbi2-42" value="32" style="edgeLabel;html=1;align=center;verticalAlign=middle;resizable=0;points=[];fontSize=5;" vertex="1" connectable="0" parent="hbV3hxeHcZxjDUzCkbi2-40">
          <mxGeometry x="0.4462" y="-1" relative="1" as="geometry">
            <mxPoint as="offset" />
          </mxGeometry>
        </mxCell>
        <mxCell id="hbV3hxeHcZxjDUzCkbi2-46" value="" style="endArrow=openThin;html=1;rounded=0;fontSize=5;endFill=0;endSize=4;" edge="1" parent="1">
          <mxGeometry width="50" height="50" relative="1" as="geometry">
            <mxPoint x="265" y="389.52" as="sourcePoint" />
            <mxPoint x="325" y="389.52" as="targetPoint" />
          </mxGeometry>
        </mxCell>
        <mxCell id="hbV3hxeHcZxjDUzCkbi2-47" value="in_valid_0" style="edgeLabel;html=1;align=center;verticalAlign=middle;resizable=0;points=[];fontSize=5;" vertex="1" connectable="0" parent="hbV3hxeHcZxjDUzCkbi2-46">
          <mxGeometry x="-0.4066" relative="1" as="geometry">
            <mxPoint as="offset" />
          </mxGeometry>
        </mxCell>
        <mxCell id="hbV3hxeHcZxjDUzCkbi2-48" value="1" style="edgeLabel;html=1;align=center;verticalAlign=middle;resizable=0;points=[];fontSize=5;" vertex="1" connectable="0" parent="hbV3hxeHcZxjDUzCkbi2-46">
          <mxGeometry x="0.4462" y="-1" relative="1" as="geometry">
            <mxPoint as="offset" />
          </mxGeometry>
        </mxCell>
        <mxCell id="hbV3hxeHcZxjDUzCkbi2-49" value="" style="endArrow=openThin;html=1;rounded=0;fontSize=5;endFill=0;endSize=4;" edge="1" parent="1">
          <mxGeometry width="50" height="50" relative="1" as="geometry">
            <mxPoint x="325" y="399.52" as="sourcePoint" />
            <mxPoint x="265" y="399.52" as="targetPoint" />
          </mxGeometry>
        </mxCell>
        <mxCell id="hbV3hxeHcZxjDUzCkbi2-50" value="in_ready_0" style="edgeLabel;html=1;align=center;verticalAlign=middle;resizable=0;points=[];fontSize=5;" vertex="1" connectable="0" parent="hbV3hxeHcZxjDUzCkbi2-49">
          <mxGeometry x="-0.4066" relative="1" as="geometry">
            <mxPoint as="offset" />
          </mxGeometry>
        </mxCell>
        <mxCell id="hbV3hxeHcZxjDUzCkbi2-51" value="1" style="edgeLabel;html=1;align=center;verticalAlign=middle;resizable=0;points=[];fontSize=5;" vertex="1" connectable="0" parent="hbV3hxeHcZxjDUzCkbi2-49">
          <mxGeometry x="0.4462" y="-1" relative="1" as="geometry">
            <mxPoint as="offset" />
          </mxGeometry>
        </mxCell>
        <mxCell id="hbV3hxeHcZxjDUzCkbi2-52" value="" style="endArrow=openThin;html=1;rounded=0;fontSize=5;endFill=0;endSize=4;" edge="1" parent="1">
          <mxGeometry width="50" height="50" relative="1" as="geometry">
            <mxPoint x="325" y="409.52" as="sourcePoint" />
            <mxPoint x="265" y="409.52" as="targetPoint" />
          </mxGeometry>
        </mxCell>
        <mxCell id="hbV3hxeHcZxjDUzCkbi2-53" value="out_valid_0" style="edgeLabel;html=1;align=center;verticalAlign=middle;resizable=0;points=[];fontSize=5;" vertex="1" connectable="0" parent="hbV3hxeHcZxjDUzCkbi2-52">
          <mxGeometry x="-0.4066" relative="1" as="geometry">
            <mxPoint as="offset" />
          </mxGeometry>
        </mxCell>
        <mxCell id="hbV3hxeHcZxjDUzCkbi2-54" value="1" style="edgeLabel;html=1;align=center;verticalAlign=middle;resizable=0;points=[];fontSize=5;" vertex="1" connectable="0" parent="hbV3hxeHcZxjDUzCkbi2-52">
          <mxGeometry x="0.4462" y="-1" relative="1" as="geometry">
            <mxPoint as="offset" />
          </mxGeometry>
        </mxCell>
        <mxCell id="hbV3hxeHcZxjDUzCkbi2-55" value="" style="endArrow=openThin;startArrow=openThin;html=1;rounded=0;endFill=0;startFill=0;strokeWidth=1;" edge="1" parent="1">
          <mxGeometry width="50" height="50" relative="1" as="geometry">
            <mxPoint x="260" y="570" as="sourcePoint" />
            <mxPoint x="320" y="570" as="targetPoint" />
          </mxGeometry>
        </mxCell>
        <mxCell id="hbV3hxeHcZxjDUzCkbi2-56" value="&lt;font&gt;data_1&lt;/font&gt;" style="edgeLabel;html=1;align=center;verticalAlign=middle;resizable=0;points=[];fontSize=5;" vertex="1" connectable="0" parent="hbV3hxeHcZxjDUzCkbi2-55">
          <mxGeometry x="-0.4133" relative="1" as="geometry">
            <mxPoint as="offset" />
          </mxGeometry>
        </mxCell>
        <mxCell id="hbV3hxeHcZxjDUzCkbi2-57" value="&lt;font style=&quot;font-size: 5px;&quot;&gt;16&lt;br&gt;&lt;/font&gt;" style="edgeLabel;html=1;align=center;verticalAlign=middle;resizable=0;points=[];" vertex="1" connectable="0" parent="hbV3hxeHcZxjDUzCkbi2-55">
          <mxGeometry x="0.3067" y="-1" relative="1" as="geometry">
            <mxPoint y="-2" as="offset" />
          </mxGeometry>
        </mxCell>
        <mxCell id="hbV3hxeHcZxjDUzCkbi2-58" value="" style="endArrow=openThin;startArrow=openThin;html=1;rounded=0;endFill=0;startFill=0;strokeWidth=1;" edge="1" parent="1">
          <mxGeometry width="50" height="50" relative="1" as="geometry">
            <mxPoint x="260" y="590" as="sourcePoint" />
            <mxPoint x="320" y="590" as="targetPoint" />
          </mxGeometry>
        </mxCell>
        <mxCell id="hbV3hxeHcZxjDUzCkbi2-59" value="&lt;font&gt;data_2&lt;/font&gt;" style="edgeLabel;html=1;align=center;verticalAlign=middle;resizable=0;points=[];fontSize=5;" vertex="1" connectable="0" parent="hbV3hxeHcZxjDUzCkbi2-58">
          <mxGeometry x="-0.4133" relative="1" as="geometry">
            <mxPoint as="offset" />
          </mxGeometry>
        </mxCell>
        <mxCell id="hbV3hxeHcZxjDUzCkbi2-60" value="&lt;font style=&quot;font-size: 5px;&quot;&gt;16&lt;/font&gt;" style="edgeLabel;html=1;align=center;verticalAlign=middle;resizable=0;points=[];" vertex="1" connectable="0" parent="hbV3hxeHcZxjDUzCkbi2-58">
          <mxGeometry x="0.3067" y="-1" relative="1" as="geometry">
            <mxPoint y="-2" as="offset" />
          </mxGeometry>
        </mxCell>
        <mxCell id="hbV3hxeHcZxjDUzCkbi2-61" value="" style="endArrow=openThin;startArrow=openThin;html=1;rounded=0;endFill=0;startFill=0;strokeWidth=1;" edge="1" parent="1">
          <mxGeometry width="50" height="50" relative="1" as="geometry">
            <mxPoint x="260" y="550" as="sourcePoint" />
            <mxPoint x="320" y="550" as="targetPoint" />
          </mxGeometry>
        </mxCell>
        <mxCell id="hbV3hxeHcZxjDUzCkbi2-62" value="&lt;font&gt;data_0&lt;/font&gt;" style="edgeLabel;html=1;align=center;verticalAlign=middle;resizable=0;points=[];fontSize=5;" vertex="1" connectable="0" parent="hbV3hxeHcZxjDUzCkbi2-61">
          <mxGeometry x="-0.4133" relative="1" as="geometry">
            <mxPoint as="offset" />
          </mxGeometry>
        </mxCell>
        <mxCell id="hbV3hxeHcZxjDUzCkbi2-63" value="&lt;div&gt;&lt;font style=&quot;font-size: 5px;&quot;&gt;16&lt;/font&gt;&lt;/div&gt;" style="edgeLabel;html=1;align=center;verticalAlign=middle;resizable=0;points=[];" vertex="1" connectable="0" parent="hbV3hxeHcZxjDUzCkbi2-61">
          <mxGeometry x="0.3067" y="-1" relative="1" as="geometry">
            <mxPoint y="-2" as="offset" />
          </mxGeometry>
        </mxCell>
        <mxCell id="hbV3hxeHcZxjDUzCkbi2-64" value="&lt;div&gt;MAC1&lt;/div&gt;&lt;div&gt;(16 mac)&lt;/div&gt;" style="rounded=0;whiteSpace=wrap;html=1;" vertex="1" parent="1">
          <mxGeometry x="500" y="440" width="50" height="40" as="geometry" />
        </mxCell>
        <mxCell id="hbV3hxeHcZxjDUzCkbi2-67" value="" style="endArrow=openThin;html=1;rounded=0;fontSize=5;endFill=0;endSize=4;" edge="1" parent="1">
          <mxGeometry width="50" height="50" relative="1" as="geometry">
            <mxPoint x="410" y="450" as="sourcePoint" />
            <mxPoint x="500" y="450" as="targetPoint" />
          </mxGeometry>
        </mxCell>
        <mxCell id="hbV3hxeHcZxjDUzCkbi2-68" value="mac_a[15:0]" style="edgeLabel;html=1;align=center;verticalAlign=middle;resizable=0;points=[];fontSize=5;" vertex="1" connectable="0" parent="hbV3hxeHcZxjDUzCkbi2-67">
          <mxGeometry x="-0.4066" relative="1" as="geometry">
            <mxPoint x="13" as="offset" />
          </mxGeometry>
        </mxCell>
        <mxCell id="hbV3hxeHcZxjDUzCkbi2-69" value="32" style="edgeLabel;html=1;align=center;verticalAlign=middle;resizable=0;points=[];fontSize=5;" vertex="1" connectable="0" parent="hbV3hxeHcZxjDUzCkbi2-67">
          <mxGeometry x="0.4462" y="-1" relative="1" as="geometry">
            <mxPoint x="5" as="offset" />
          </mxGeometry>
        </mxCell>
        <mxCell id="hbV3hxeHcZxjDUzCkbi2-75" value="" style="endArrow=openThin;startArrow=none;html=1;rounded=0;endFill=0;startFill=0;strokeWidth=1;entryX=-0.038;entryY=0.749;entryDx=0;entryDy=0;entryPerimeter=0;exitX=0.5;exitY=0;exitDx=0;exitDy=0;" edge="1" parent="1" source="hbV3hxeHcZxjDUzCkbi2-123">
          <mxGeometry width="50" height="50" relative="1" as="geometry">
            <mxPoint x="401.52" y="540" as="sourcePoint" />
            <mxPoint x="459.9999999999999" y="409.96000000000004" as="targetPoint" />
            <Array as="points">
              <mxPoint x="400" y="520" />
              <mxPoint x="400" y="510" />
              <mxPoint x="430" y="510" />
              <mxPoint x="430" y="410" />
            </Array>
          </mxGeometry>
        </mxCell>
        <mxCell id="hbV3hxeHcZxjDUzCkbi2-76" value="&lt;font&gt;data_2&lt;/font&gt;" style="edgeLabel;html=1;align=center;verticalAlign=middle;resizable=0;points=[];fontSize=5;" vertex="1" connectable="0" parent="hbV3hxeHcZxjDUzCkbi2-75">
          <mxGeometry x="-0.4133" relative="1" as="geometry">
            <mxPoint y="-5" as="offset" />
          </mxGeometry>
        </mxCell>
        <mxCell id="hbV3hxeHcZxjDUzCkbi2-77" value="16" style="edgeLabel;html=1;align=center;verticalAlign=middle;resizable=0;points=[];fontSize=5;" vertex="1" connectable="0" parent="hbV3hxeHcZxjDUzCkbi2-75">
          <mxGeometry x="0.3067" y="-1" relative="1" as="geometry">
            <mxPoint x="9" y="-36" as="offset" />
          </mxGeometry>
        </mxCell>
        <mxCell id="hbV3hxeHcZxjDUzCkbi2-78" value="&lt;div&gt;MAC1&lt;/div&gt;&lt;div&gt;(16 mac)&lt;/div&gt;" style="rounded=0;whiteSpace=wrap;html=1;" vertex="1" parent="1">
          <mxGeometry x="500" y="480" width="50" height="40" as="geometry" />
        </mxCell>
        <mxCell id="hbV3hxeHcZxjDUzCkbi2-79" value="&lt;div&gt;MAC1&lt;/div&gt;&lt;div&gt;(16 mac)&lt;/div&gt;" style="rounded=0;whiteSpace=wrap;html=1;" vertex="1" parent="1">
          <mxGeometry x="500" y="520" width="50" height="40" as="geometry" />
        </mxCell>
        <mxCell id="hbV3hxeHcZxjDUzCkbi2-80" value="" style="endArrow=openThin;html=1;rounded=0;fontSize=5;endFill=0;endSize=4;" edge="1" parent="1">
          <mxGeometry width="50" height="50" relative="1" as="geometry">
            <mxPoint x="480" y="480" as="sourcePoint" />
            <mxPoint x="500" y="509.83" as="targetPoint" />
            <Array as="points">
              <mxPoint x="480" y="510" />
            </Array>
          </mxGeometry>
        </mxCell>
        <mxCell id="hbV3hxeHcZxjDUzCkbi2-82" value="16" style="edgeLabel;html=1;align=center;verticalAlign=middle;resizable=0;points=[];fontSize=5;" vertex="1" connectable="0" parent="hbV3hxeHcZxjDUzCkbi2-80">
          <mxGeometry x="0.4462" y="-1" relative="1" as="geometry">
            <mxPoint x="8" y="-4" as="offset" />
          </mxGeometry>
        </mxCell>
        <mxCell id="hbV3hxeHcZxjDUzCkbi2-83" value="" style="endArrow=openThin;html=1;rounded=0;fontSize=5;endFill=0;endSize=4;exitX=0.25;exitY=1;exitDx=0;exitDy=0;" edge="1" parent="1" source="hbV3hxeHcZxjDUzCkbi2-4">
          <mxGeometry width="50" height="50" relative="1" as="geometry">
            <mxPoint x="470" y="460" as="sourcePoint" />
            <mxPoint x="500" y="539.8299999999999" as="targetPoint" />
            <Array as="points">
              <mxPoint x="470" y="540" />
            </Array>
          </mxGeometry>
        </mxCell>
        <mxCell id="hbV3hxeHcZxjDUzCkbi2-85" value="16" style="edgeLabel;html=1;align=center;verticalAlign=middle;resizable=0;points=[];fontSize=5;" vertex="1" connectable="0" parent="hbV3hxeHcZxjDUzCkbi2-83">
          <mxGeometry x="0.4462" y="-1" relative="1" as="geometry">
            <mxPoint x="11" y="11" as="offset" />
          </mxGeometry>
        </mxCell>
        <mxCell id="hbV3hxeHcZxjDUzCkbi2-91" value="" style="endArrow=openThin;startArrow=none;html=1;rounded=0;endFill=0;startFill=0;strokeWidth=1;entryX=-0.038;entryY=0.749;entryDx=0;entryDy=0;entryPerimeter=0;exitX=0.5;exitY=0;exitDx=0;exitDy=0;" edge="1" parent="1" source="hbV3hxeHcZxjDUzCkbi2-122">
          <mxGeometry width="50" height="50" relative="1" as="geometry">
            <mxPoint x="410" y="490" as="sourcePoint" />
            <mxPoint x="460" y="400" as="targetPoint" />
            <Array as="points">
              <mxPoint x="400" y="470" />
              <mxPoint x="420" y="470" />
              <mxPoint x="420" y="440" />
              <mxPoint x="420" y="420" />
              <mxPoint x="420" y="400" />
            </Array>
          </mxGeometry>
        </mxCell>
        <mxCell id="hbV3hxeHcZxjDUzCkbi2-92" value="&lt;font&gt;data_1&lt;/font&gt;" style="edgeLabel;html=1;align=center;verticalAlign=middle;resizable=0;points=[];fontSize=5;" vertex="1" connectable="0" parent="hbV3hxeHcZxjDUzCkbi2-91">
          <mxGeometry x="-0.4133" relative="1" as="geometry">
            <mxPoint as="offset" />
          </mxGeometry>
        </mxCell>
        <mxCell id="hbV3hxeHcZxjDUzCkbi2-93" value="16" style="edgeLabel;html=1;align=center;verticalAlign=middle;resizable=0;points=[];fontSize=5;" vertex="1" connectable="0" parent="hbV3hxeHcZxjDUzCkbi2-91">
          <mxGeometry x="0.3067" y="-1" relative="1" as="geometry">
            <mxPoint x="19" y="-9" as="offset" />
          </mxGeometry>
        </mxCell>
        <mxCell id="hbV3hxeHcZxjDUzCkbi2-94" value="" style="endArrow=openThin;startArrow=none;html=1;rounded=0;endFill=0;startFill=0;strokeWidth=1;entryX=0;entryY=0.25;entryDx=0;entryDy=0;" edge="1" parent="1" target="hbV3hxeHcZxjDUzCkbi2-4">
          <mxGeometry width="50" height="50" relative="1" as="geometry">
            <mxPoint x="410" y="450" as="sourcePoint" />
            <mxPoint x="450" y="390" as="targetPoint" />
            <Array as="points">
              <mxPoint x="400" y="450" />
              <mxPoint x="390" y="440" />
              <mxPoint x="390" y="430" />
              <mxPoint x="400" y="430" />
              <mxPoint x="410" y="430" />
              <mxPoint x="410" y="390" />
            </Array>
          </mxGeometry>
        </mxCell>
        <mxCell id="hbV3hxeHcZxjDUzCkbi2-95" value="&lt;font&gt;data_0&lt;/font&gt;" style="edgeLabel;html=1;align=center;verticalAlign=middle;resizable=0;points=[];fontSize=5;" vertex="1" connectable="0" parent="hbV3hxeHcZxjDUzCkbi2-94">
          <mxGeometry x="-0.4133" relative="1" as="geometry">
            <mxPoint y="-19" as="offset" />
          </mxGeometry>
        </mxCell>
        <mxCell id="hbV3hxeHcZxjDUzCkbi2-96" value="&lt;font style=&quot;font-size: 5px;&quot;&gt;16&lt;/font&gt;" style="edgeLabel;html=1;align=center;verticalAlign=middle;resizable=0;points=[];" vertex="1" connectable="0" parent="hbV3hxeHcZxjDUzCkbi2-94">
          <mxGeometry x="0.3067" y="-1" relative="1" as="geometry">
            <mxPoint x="30" y="-1" as="offset" />
          </mxGeometry>
        </mxCell>
        <mxCell id="hbV3hxeHcZxjDUzCkbi2-97" value="" style="endArrow=openThin;html=1;rounded=0;fontSize=5;endFill=0;endSize=4;exitX=1;exitY=0.5;exitDx=0;exitDy=0;" edge="1" parent="1" source="hbV3hxeHcZxjDUzCkbi2-122">
          <mxGeometry width="50" height="50" relative="1" as="geometry">
            <mxPoint x="420" y="500" as="sourcePoint" />
            <mxPoint x="500" y="490" as="targetPoint" />
            <Array as="points">
              <mxPoint x="420" y="490" />
            </Array>
          </mxGeometry>
        </mxCell>
        <mxCell id="hbV3hxeHcZxjDUzCkbi2-98" value="mac_a[31:16]" style="edgeLabel;html=1;align=center;verticalAlign=middle;resizable=0;points=[];fontSize=5;" vertex="1" connectable="0" parent="hbV3hxeHcZxjDUzCkbi2-97">
          <mxGeometry x="-0.4066" relative="1" as="geometry">
            <mxPoint x="6" as="offset" />
          </mxGeometry>
        </mxCell>
        <mxCell id="hbV3hxeHcZxjDUzCkbi2-99" value="16" style="edgeLabel;html=1;align=center;verticalAlign=middle;resizable=0;points=[];fontSize=5;" vertex="1" connectable="0" parent="hbV3hxeHcZxjDUzCkbi2-97">
          <mxGeometry x="0.4462" y="-1" relative="1" as="geometry">
            <mxPoint x="9" y="-1" as="offset" />
          </mxGeometry>
        </mxCell>
        <mxCell id="hbV3hxeHcZxjDUzCkbi2-100" value="" style="endArrow=openThin;html=1;rounded=0;fontSize=5;endFill=0;endSize=4;exitX=1;exitY=0.5;exitDx=0;exitDy=0;" edge="1" parent="1" source="hbV3hxeHcZxjDUzCkbi2-123">
          <mxGeometry width="50" height="50" relative="1" as="geometry">
            <mxPoint x="430" y="530" as="sourcePoint" />
            <mxPoint x="500" y="530" as="targetPoint" />
            <Array as="points">
              <mxPoint x="420" y="550" />
              <mxPoint x="420" y="530" />
            </Array>
          </mxGeometry>
        </mxCell>
        <mxCell id="hbV3hxeHcZxjDUzCkbi2-101" value="mac_a[47:36]]" style="edgeLabel;html=1;align=center;verticalAlign=middle;resizable=0;points=[];fontSize=5;" vertex="1" connectable="0" parent="hbV3hxeHcZxjDUzCkbi2-100">
          <mxGeometry x="-0.4066" relative="1" as="geometry">
            <mxPoint x="-1" as="offset" />
          </mxGeometry>
        </mxCell>
        <mxCell id="hbV3hxeHcZxjDUzCkbi2-102" value="16" style="edgeLabel;html=1;align=center;verticalAlign=middle;resizable=0;points=[];fontSize=5;" vertex="1" connectable="0" parent="hbV3hxeHcZxjDUzCkbi2-100">
          <mxGeometry x="0.4462" y="-1" relative="1" as="geometry">
            <mxPoint x="20" as="offset" />
          </mxGeometry>
        </mxCell>
        <mxCell id="hbV3hxeHcZxjDUzCkbi2-103" value="" style="endArrow=openThin;html=1;rounded=0;fontSize=5;endFill=0;endSize=4;" edge="1" parent="1">
          <mxGeometry width="50" height="50" relative="1" as="geometry">
            <mxPoint x="550" y="450" as="sourcePoint" />
            <mxPoint x="610" y="450" as="targetPoint" />
          </mxGeometry>
        </mxCell>
        <mxCell id="hbV3hxeHcZxjDUzCkbi2-104" value="mac_out[17:0]" style="edgeLabel;html=1;align=center;verticalAlign=middle;resizable=0;points=[];fontSize=5;" vertex="1" connectable="0" parent="hbV3hxeHcZxjDUzCkbi2-103">
          <mxGeometry x="-0.4066" relative="1" as="geometry">
            <mxPoint x="2" as="offset" />
          </mxGeometry>
        </mxCell>
        <mxCell id="hbV3hxeHcZxjDUzCkbi2-105" value="16" style="edgeLabel;html=1;align=center;verticalAlign=middle;resizable=0;points=[];fontSize=5;" vertex="1" connectable="0" parent="hbV3hxeHcZxjDUzCkbi2-103">
          <mxGeometry x="0.4462" y="-1" relative="1" as="geometry">
            <mxPoint as="offset" />
          </mxGeometry>
        </mxCell>
        <mxCell id="hbV3hxeHcZxjDUzCkbi2-107" value="" style="endArrow=openThin;html=1;rounded=0;fontSize=5;endFill=0;endSize=4;exitX=1;exitY=0.5;exitDx=0;exitDy=0;" edge="1" parent="1" source="hbV3hxeHcZxjDUzCkbi2-78">
          <mxGeometry width="50" height="50" relative="1" as="geometry">
            <mxPoint x="550" y="470" as="sourcePoint" />
            <mxPoint x="610" y="470" as="targetPoint" />
            <Array as="points">
              <mxPoint x="590" y="500" />
              <mxPoint x="590" y="470" />
            </Array>
          </mxGeometry>
        </mxCell>
        <mxCell id="hbV3hxeHcZxjDUzCkbi2-108" value="mac_out[17:0]" style="edgeLabel;html=1;align=center;verticalAlign=middle;resizable=0;points=[];fontSize=5;" vertex="1" connectable="0" parent="hbV3hxeHcZxjDUzCkbi2-107">
          <mxGeometry x="-0.4066" relative="1" as="geometry">
            <mxPoint x="2" as="offset" />
          </mxGeometry>
        </mxCell>
        <mxCell id="hbV3hxeHcZxjDUzCkbi2-109" value="16" style="edgeLabel;html=1;align=center;verticalAlign=middle;resizable=0;points=[];fontSize=5;" vertex="1" connectable="0" parent="hbV3hxeHcZxjDUzCkbi2-107">
          <mxGeometry x="0.4462" y="-1" relative="1" as="geometry">
            <mxPoint as="offset" />
          </mxGeometry>
        </mxCell>
        <mxCell id="hbV3hxeHcZxjDUzCkbi2-110" value="" style="endArrow=openThin;html=1;rounded=0;fontSize=5;endFill=0;endSize=4;exitX=1;exitY=0.5;exitDx=0;exitDy=0;entryX=0.25;entryY=1;entryDx=0;entryDy=0;" edge="1" parent="1" target="hbV3hxeHcZxjDUzCkbi2-5">
          <mxGeometry width="50" height="50" relative="1" as="geometry">
            <mxPoint x="550" y="540" as="sourcePoint" />
            <mxPoint x="610" y="510" as="targetPoint" />
            <Array as="points">
              <mxPoint x="590" y="540" />
              <mxPoint x="620" y="540" />
            </Array>
          </mxGeometry>
        </mxCell>
        <mxCell id="hbV3hxeHcZxjDUzCkbi2-111" value="mac_out[17:0]" style="edgeLabel;html=1;align=center;verticalAlign=middle;resizable=0;points=[];fontSize=5;" vertex="1" connectable="0" parent="hbV3hxeHcZxjDUzCkbi2-110">
          <mxGeometry x="-0.4066" relative="1" as="geometry">
            <mxPoint x="2" as="offset" />
          </mxGeometry>
        </mxCell>
        <mxCell id="hbV3hxeHcZxjDUzCkbi2-112" value="16" style="edgeLabel;html=1;align=center;verticalAlign=middle;resizable=0;points=[];fontSize=5;" vertex="1" connectable="0" parent="hbV3hxeHcZxjDUzCkbi2-110">
          <mxGeometry x="0.4462" y="-1" relative="1" as="geometry">
            <mxPoint as="offset" />
          </mxGeometry>
        </mxCell>
        <mxCell id="hbV3hxeHcZxjDUzCkbi2-114" value="&lt;font style=&quot;font-size: 8px;&quot;&gt;mux&lt;/font&gt;" style="whiteSpace=wrap;html=1;aspect=fixed;" vertex="1" parent="1">
          <mxGeometry x="380" y="439.52" width="20.48" height="20.48" as="geometry" />
        </mxCell>
        <mxCell id="hbV3hxeHcZxjDUzCkbi2-118" value="FSM" style="rounded=0;whiteSpace=wrap;html=1;rotation=90;" vertex="1" parent="1">
          <mxGeometry x="255" y="439.52" width="170" height="30" as="geometry" />
        </mxCell>
        <mxCell id="hbV3hxeHcZxjDUzCkbi2-122" value="&lt;font style=&quot;font-size: 8px;&quot;&gt;mux&lt;/font&gt;" style="whiteSpace=wrap;html=1;aspect=fixed;" vertex="1" parent="1">
          <mxGeometry x="390" y="480" width="20" height="20" as="geometry" />
        </mxCell>
        <mxCell id="hbV3hxeHcZxjDUzCkbi2-123" value="&lt;font style=&quot;font-size: 8px;&quot;&gt;mux&lt;/font&gt;" style="whiteSpace=wrap;html=1;aspect=fixed;" vertex="1" parent="1">
          <mxGeometry x="390" y="540" width="20" height="20" as="geometry" />
        </mxCell>
        <mxCell id="hbV3hxeHcZxjDUzCkbi2-124" value="" style="endArrow=openThin;html=1;rounded=0;fontSize=5;endFill=0;endSize=4;exitX=0.052;exitY=0.02;exitDx=0;exitDy=0;exitPerimeter=0;entryX=0.25;entryY=0;entryDx=0;entryDy=0;" edge="1" parent="1" source="hbV3hxeHcZxjDUzCkbi2-118" target="hbV3hxeHcZxjDUzCkbi2-4">
          <mxGeometry width="50" height="50" relative="1" as="geometry">
            <mxPoint x="350" y="350" as="sourcePoint" />
            <mxPoint x="410" y="350" as="targetPoint" />
            <Array as="points">
              <mxPoint x="390" y="378" />
              <mxPoint x="390" y="370" />
              <mxPoint x="470" y="370" />
            </Array>
          </mxGeometry>
        </mxCell>
        <mxCell id="hbV3hxeHcZxjDUzCkbi2-125" value="kbuf_read_addr[2:0]" style="edgeLabel;html=1;align=center;verticalAlign=middle;resizable=0;points=[];fontSize=5;" vertex="1" connectable="0" parent="hbV3hxeHcZxjDUzCkbi2-124">
          <mxGeometry x="-0.4066" relative="1" as="geometry">
            <mxPoint x="20" y="-4" as="offset" />
          </mxGeometry>
        </mxCell>
        <mxCell id="hbV3hxeHcZxjDUzCkbi2-126" value="8" style="edgeLabel;html=1;align=center;verticalAlign=middle;resizable=0;points=[];fontSize=5;" vertex="1" connectable="0" parent="hbV3hxeHcZxjDUzCkbi2-124">
          <mxGeometry x="0.4462" y="-1" relative="1" as="geometry">
            <mxPoint as="offset" />
          </mxGeometry>
        </mxCell>
        <mxCell id="hbV3hxeHcZxjDUzCkbi2-129" value="" style="endArrow=openThin;html=1;rounded=0;fontSize=5;endFill=0;endSize=4;exitX=-0.009;exitY=0.17;exitDx=0;exitDy=0;exitPerimeter=0;entryX=0.5;entryY=0;entryDx=0;entryDy=0;" edge="1" parent="1" source="hbV3hxeHcZxjDUzCkbi2-118" target="hbV3hxeHcZxjDUzCkbi2-4">
          <mxGeometry width="50" height="50" relative="1" as="geometry">
            <mxPoint x="350" y="358" as="sourcePoint" />
            <mxPoint x="466" y="360" as="targetPoint" />
            <Array as="points">
              <mxPoint x="350" y="360" />
              <mxPoint x="480" y="360" />
            </Array>
          </mxGeometry>
        </mxCell>
        <mxCell id="hbV3hxeHcZxjDUzCkbi2-131" value="1" style="edgeLabel;html=1;align=center;verticalAlign=middle;resizable=0;points=[];fontSize=5;" vertex="1" connectable="0" parent="hbV3hxeHcZxjDUzCkbi2-129">
          <mxGeometry x="0.4462" y="-1" relative="1" as="geometry">
            <mxPoint as="offset" />
          </mxGeometry>
        </mxCell>
        <mxCell id="hbV3hxeHcZxjDUzCkbi2-132" value="&lt;font style=&quot;font-size: 5px;&quot;&gt;kbuf_re&lt;/font&gt;" style="edgeLabel;html=1;align=center;verticalAlign=middle;resizable=0;points=[];" vertex="1" connectable="0" parent="hbV3hxeHcZxjDUzCkbi2-129">
          <mxGeometry x="-0.5064" relative="1" as="geometry">
            <mxPoint as="offset" />
          </mxGeometry>
        </mxCell>
        <mxCell id="hbV3hxeHcZxjDUzCkbi2-133" value="" style="endArrow=openThin;html=1;rounded=0;fontSize=5;endFill=0;endSize=4;exitX=0;exitY=0.5;exitDx=0;exitDy=0;entryX=0.75;entryY=0;entryDx=0;entryDy=0;" edge="1" parent="1" source="hbV3hxeHcZxjDUzCkbi2-118" target="hbV3hxeHcZxjDUzCkbi2-4">
          <mxGeometry width="50" height="50" relative="1" as="geometry">
            <mxPoint x="360" y="358" as="sourcePoint" />
            <mxPoint x="490" y="370" as="targetPoint" />
            <Array as="points">
              <mxPoint x="340" y="350" />
              <mxPoint x="360" y="350" />
              <mxPoint x="490" y="350" />
            </Array>
          </mxGeometry>
        </mxCell>
        <mxCell id="hbV3hxeHcZxjDUzCkbi2-134" value="1" style="edgeLabel;html=1;align=center;verticalAlign=middle;resizable=0;points=[];fontSize=5;" vertex="1" connectable="0" parent="hbV3hxeHcZxjDUzCkbi2-133">
          <mxGeometry x="0.4462" y="-1" relative="1" as="geometry">
            <mxPoint as="offset" />
          </mxGeometry>
        </mxCell>
        <mxCell id="hbV3hxeHcZxjDUzCkbi2-135" value="&lt;font style=&quot;font-size: 5px;&quot;&gt;kbuf_we&lt;/font&gt;" style="edgeLabel;html=1;align=center;verticalAlign=middle;resizable=0;points=[];" vertex="1" connectable="0" parent="hbV3hxeHcZxjDUzCkbi2-133">
          <mxGeometry x="-0.5064" relative="1" as="geometry">
            <mxPoint as="offset" />
          </mxGeometry>
        </mxCell>
        <mxCell id="hbV3hxeHcZxjDUzCkbi2-137" value="" style="endArrow=openThin;html=1;rounded=0;fontSize=5;endFill=0;endSize=4;exitX=0.11;exitY=-0.01;exitDx=0;exitDy=0;exitPerimeter=0;entryX=0;entryY=0;entryDx=0;entryDy=0;" edge="1" parent="1" source="hbV3hxeHcZxjDUzCkbi2-118" target="hbV3hxeHcZxjDUzCkbi2-4">
          <mxGeometry width="50" height="50" relative="1" as="geometry">
            <mxPoint x="360" y="388" as="sourcePoint" />
            <mxPoint x="476" y="390" as="targetPoint" />
            <Array as="points">
              <mxPoint x="400" y="388" />
              <mxPoint x="400" y="380" />
              <mxPoint x="406" y="380" />
            </Array>
          </mxGeometry>
        </mxCell>
        <mxCell id="hbV3hxeHcZxjDUzCkbi2-138" value="kbuf_write_addr[2:0]" style="edgeLabel;html=1;align=center;verticalAlign=middle;resizable=0;points=[];fontSize=5;" vertex="1" connectable="0" parent="hbV3hxeHcZxjDUzCkbi2-137">
          <mxGeometry x="-0.4066" relative="1" as="geometry">
            <mxPoint x="-9" as="offset" />
          </mxGeometry>
        </mxCell>
        <mxCell id="hbV3hxeHcZxjDUzCkbi2-139" value="8" style="edgeLabel;html=1;align=center;verticalAlign=middle;resizable=0;points=[];fontSize=5;" vertex="1" connectable="0" parent="hbV3hxeHcZxjDUzCkbi2-137">
          <mxGeometry x="0.4462" y="-1" relative="1" as="geometry">
            <mxPoint as="offset" />
          </mxGeometry>
        </mxCell>
        <mxCell id="hbV3hxeHcZxjDUzCkbi2-140" value="" style="endArrow=openThin;html=1;rounded=0;entryX=0;entryY=0.5;entryDx=0;entryDy=0;endFill=0;" edge="1" parent="1" target="hbV3hxeHcZxjDUzCkbi2-114">
          <mxGeometry width="50" height="50" relative="1" as="geometry">
            <mxPoint x="320" y="550" as="sourcePoint" />
            <mxPoint x="440" y="490" as="targetPoint" />
            <Array as="points">
              <mxPoint x="360" y="550" />
              <mxPoint x="360" y="450" />
            </Array>
          </mxGeometry>
        </mxCell>
        <mxCell id="hbV3hxeHcZxjDUzCkbi2-141" value="" style="endArrow=openThin;html=1;rounded=0;entryX=0;entryY=0.5;entryDx=0;entryDy=0;endFill=0;" edge="1" parent="1" target="hbV3hxeHcZxjDUzCkbi2-122">
          <mxGeometry width="50" height="50" relative="1" as="geometry">
            <mxPoint x="320" y="569.52" as="sourcePoint" />
            <mxPoint x="380" y="469.52" as="targetPoint" />
            <Array as="points">
              <mxPoint x="370" y="570" />
              <mxPoint x="370" y="490" />
            </Array>
          </mxGeometry>
        </mxCell>
        <mxCell id="hbV3hxeHcZxjDUzCkbi2-143" value="" style="endArrow=openThin;html=1;rounded=0;entryX=0;entryY=0.5;entryDx=0;entryDy=0;endFill=0;" edge="1" parent="1" target="hbV3hxeHcZxjDUzCkbi2-123">
          <mxGeometry width="50" height="50" relative="1" as="geometry">
            <mxPoint x="320" y="589.52" as="sourcePoint" />
            <mxPoint x="380" y="520" as="targetPoint" />
            <Array as="points">
              <mxPoint x="380" y="590" />
              <mxPoint x="380" y="550" />
            </Array>
          </mxGeometry>
        </mxCell>
        <mxCell id="hbV3hxeHcZxjDUzCkbi2-145" value="" style="endArrow=openThin;html=1;rounded=0;fontSize=5;endFill=0;endSize=4;exitX=0.44;exitY=-0.015;exitDx=0;exitDy=0;exitPerimeter=0;entryX=0;entryY=0.25;entryDx=0;entryDy=0;" edge="1" parent="1" source="hbV3hxeHcZxjDUzCkbi2-118" target="hbV3hxeHcZxjDUzCkbi2-114">
          <mxGeometry width="50" height="50" relative="1" as="geometry">
            <mxPoint x="330" y="420" as="sourcePoint" />
            <mxPoint x="390" y="420" as="targetPoint" />
          </mxGeometry>
        </mxCell>
        <mxCell id="hbV3hxeHcZxjDUzCkbi2-148" value="&lt;font&gt;control*&lt;/font&gt;" style="edgeLabel;html=1;align=center;verticalAlign=middle;resizable=0;points=[];fontSize=5;" vertex="1" connectable="0" parent="hbV3hxeHcZxjDUzCkbi2-145">
          <mxGeometry x="-0.052" y="1" relative="1" as="geometry">
            <mxPoint y="-4" as="offset" />
          </mxGeometry>
        </mxCell>
        <mxCell id="hbV3hxeHcZxjDUzCkbi2-151" value="" style="endArrow=openThin;html=1;rounded=0;fontSize=5;endFill=0;endSize=4;entryX=0;entryY=0.25;entryDx=0;entryDy=0;exitX=0.679;exitY=-0.015;exitDx=0;exitDy=0;exitPerimeter=0;" edge="1" parent="1" source="hbV3hxeHcZxjDUzCkbi2-118" target="hbV3hxeHcZxjDUzCkbi2-122">
          <mxGeometry width="50" height="50" relative="1" as="geometry">
            <mxPoint x="360" y="485" as="sourcePoint" />
            <mxPoint x="380" y="481" as="targetPoint" />
          </mxGeometry>
        </mxCell>
        <mxCell id="hbV3hxeHcZxjDUzCkbi2-152" value="&lt;font&gt;control*&lt;/font&gt;" style="edgeLabel;html=1;align=center;verticalAlign=middle;resizable=0;points=[];fontSize=5;" vertex="1" connectable="0" parent="hbV3hxeHcZxjDUzCkbi2-151">
          <mxGeometry x="-0.052" y="1" relative="1" as="geometry">
            <mxPoint y="-4" as="offset" />
          </mxGeometry>
        </mxCell>
        <mxCell id="hbV3hxeHcZxjDUzCkbi2-153" value="" style="endArrow=openThin;html=1;rounded=0;fontSize=5;endFill=0;endSize=4;entryX=0;entryY=0;entryDx=0;entryDy=0;exitX=0.679;exitY=-0.015;exitDx=0;exitDy=0;exitPerimeter=0;" edge="1" parent="1" target="hbV3hxeHcZxjDUzCkbi2-123">
          <mxGeometry width="50" height="50" relative="1" as="geometry">
            <mxPoint x="355" y="530" as="sourcePoint" />
            <mxPoint x="390" y="530" as="targetPoint" />
            <Array as="points">
              <mxPoint x="390" y="530" />
            </Array>
          </mxGeometry>
        </mxCell>
        <mxCell id="hbV3hxeHcZxjDUzCkbi2-154" value="&lt;font&gt;control*&lt;/font&gt;" style="edgeLabel;html=1;align=center;verticalAlign=middle;resizable=0;points=[];fontSize=5;" vertex="1" connectable="0" parent="hbV3hxeHcZxjDUzCkbi2-153">
          <mxGeometry x="-0.052" y="1" relative="1" as="geometry">
            <mxPoint x="4" y="1" as="offset" />
          </mxGeometry>
        </mxCell>
        <mxCell id="hbV3hxeHcZxjDUzCkbi2-155" value="" style="endArrow=openThin;html=1;rounded=0;fontSize=5;endFill=0;endSize=4;exitX=1;exitY=0.25;exitDx=0;exitDy=0;entryX=0.439;entryY=1.235;entryDx=0;entryDy=0;entryPerimeter=0;" edge="1" parent="1" source="hbV3hxeHcZxjDUzCkbi2-3" target="hbV3hxeHcZxjDUzCkbi2-202">
          <mxGeometry width="50" height="50" relative="1" as="geometry">
            <mxPoint x="460" y="610" as="sourcePoint" />
            <mxPoint x="470" y="540" as="targetPoint" />
            <Array as="points">
              <mxPoint x="470" y="600" />
            </Array>
          </mxGeometry>
        </mxCell>
        <mxCell id="hbV3hxeHcZxjDUzCkbi2-156" value="&lt;div&gt;&lt;div&gt;&lt;div&gt;inbuf_data[47:32]&lt;/div&gt;&lt;/div&gt;&lt;/div&gt;" style="edgeLabel;html=1;align=center;verticalAlign=middle;resizable=0;points=[];fontSize=5;rotation=-90;" vertex="1" connectable="0" parent="hbV3hxeHcZxjDUzCkbi2-155">
          <mxGeometry x="-0.4066" relative="1" as="geometry">
            <mxPoint y="-16" as="offset" />
          </mxGeometry>
        </mxCell>
        <mxCell id="hbV3hxeHcZxjDUzCkbi2-157" value="16" style="edgeLabel;html=1;align=center;verticalAlign=middle;resizable=0;points=[];fontSize=5;" vertex="1" connectable="0" parent="hbV3hxeHcZxjDUzCkbi2-155">
          <mxGeometry x="0.4462" y="-1" relative="1" as="geometry">
            <mxPoint x="23" y="-41" as="offset" />
          </mxGeometry>
        </mxCell>
        <mxCell id="hbV3hxeHcZxjDUzCkbi2-158" value="" style="endArrow=openThin;html=1;rounded=0;fontSize=5;endFill=0;endSize=4;entryX=0;entryY=0.5;entryDx=0;entryDy=0;" edge="1" parent="1">
          <mxGeometry width="50" height="50" relative="1" as="geometry">
            <mxPoint x="340" y="529" as="sourcePoint" />
            <mxPoint x="420" y="599" as="targetPoint" />
            <Array as="points">
              <mxPoint x="340" y="599" />
            </Array>
          </mxGeometry>
        </mxCell>
        <mxCell id="hbV3hxeHcZxjDUzCkbi2-159" value="inbuf_write_addr[2:0]" style="edgeLabel;html=1;align=center;verticalAlign=middle;resizable=0;points=[];fontSize=5;" vertex="1" connectable="0" parent="hbV3hxeHcZxjDUzCkbi2-158">
          <mxGeometry x="-0.4066" relative="1" as="geometry">
            <mxPoint x="28" y="25" as="offset" />
          </mxGeometry>
        </mxCell>
        <mxCell id="hbV3hxeHcZxjDUzCkbi2-160" value="7" style="edgeLabel;html=1;align=center;verticalAlign=middle;resizable=0;points=[];fontSize=5;" vertex="1" connectable="0" parent="hbV3hxeHcZxjDUzCkbi2-158">
          <mxGeometry x="0.4462" y="-1" relative="1" as="geometry">
            <mxPoint x="22" as="offset" />
          </mxGeometry>
        </mxCell>
        <mxCell id="hbV3hxeHcZxjDUzCkbi2-166" value="" style="endArrow=openThin;html=1;rounded=0;fontSize=5;endFill=0;endSize=4;exitX=0.75;exitY=1;exitDx=0;exitDy=0;entryX=0;entryY=0.75;entryDx=0;entryDy=0;" edge="1" parent="1" source="hbV3hxeHcZxjDUzCkbi2-4" target="hbV3hxeHcZxjDUzCkbi2-64">
          <mxGeometry width="50" height="50" relative="1" as="geometry">
            <mxPoint x="480" y="429.52" as="sourcePoint" />
            <mxPoint x="510" y="469.34999999999997" as="targetPoint" />
            <Array as="points">
              <mxPoint x="490" y="440" />
              <mxPoint x="490" y="470" />
            </Array>
          </mxGeometry>
        </mxCell>
        <mxCell id="hbV3hxeHcZxjDUzCkbi2-168" value="32" style="edgeLabel;html=1;align=center;verticalAlign=middle;resizable=0;points=[];fontSize=5;" vertex="1" connectable="0" parent="hbV3hxeHcZxjDUzCkbi2-166">
          <mxGeometry x="0.4462" y="-1" relative="1" as="geometry">
            <mxPoint x="1" y="6" as="offset" />
          </mxGeometry>
        </mxCell>
        <mxCell id="hbV3hxeHcZxjDUzCkbi2-169" value="" style="endArrow=openThin;html=1;rounded=0;fontSize=5;endFill=0;endSize=4;exitX=0.5;exitY=1;exitDx=0;exitDy=0;entryX=0;entryY=0.75;entryDx=0;entryDy=0;" edge="1" parent="1" source="hbV3hxeHcZxjDUzCkbi2-203" target="hbV3hxeHcZxjDUzCkbi2-78">
          <mxGeometry width="50" height="50" relative="1" as="geometry">
            <mxPoint x="480" y="429.52" as="sourcePoint" />
            <mxPoint x="490" y="479.52" as="targetPoint" />
            <Array as="points">
              <mxPoint x="480" y="449.52" />
              <mxPoint x="480" y="510" />
            </Array>
          </mxGeometry>
        </mxCell>
        <mxCell id="hbV3hxeHcZxjDUzCkbi2-173" value="&lt;font style=&quot;font-size: 3px;&quot;&gt;kbuf_data[15:0]&lt;/font&gt;" style="edgeLabel;html=1;align=center;verticalAlign=middle;resizable=0;points=[];rotation=-90;fontSize=5;" vertex="1" connectable="0" parent="1">
          <mxGeometry x="485.9999999999999" y="433.30769230769226" as="geometry" />
        </mxCell>
        <mxCell id="hbV3hxeHcZxjDUzCkbi2-175" value="&lt;font&gt;mac_b[15:0]&lt;/font&gt;" style="edgeLabel;html=1;align=center;verticalAlign=middle;resizable=0;points=[];fontSize=3;" vertex="1" connectable="0" parent="1">
          <mxGeometry x="500" y="495.0033333333334" as="geometry">
            <mxPoint x="1" y="-20" as="offset" />
          </mxGeometry>
        </mxCell>
        <mxCell id="hbV3hxeHcZxjDUzCkbi2-176" value="&lt;font&gt;mac_b[31:16]&lt;/font&gt;" style="edgeLabel;html=1;align=center;verticalAlign=middle;resizable=0;points=[];fontSize=3;" vertex="1" connectable="0" parent="1">
          <mxGeometry x="500" y="535.7633333333333" as="geometry">
            <mxPoint x="1" y="-20" as="offset" />
          </mxGeometry>
        </mxCell>
        <mxCell id="hbV3hxeHcZxjDUzCkbi2-177" value="&lt;font&gt;mac_b[47:36]&lt;/font&gt;" style="edgeLabel;html=1;align=center;verticalAlign=middle;resizable=0;points=[];fontSize=3;" vertex="1" connectable="0" parent="1">
          <mxGeometry x="500" y="564.0033333333333" as="geometry">
            <mxPoint x="1" y="-13" as="offset" />
          </mxGeometry>
        </mxCell>
        <mxCell id="hbV3hxeHcZxjDUzCkbi2-178" value="" style="endArrow=openThin;html=1;rounded=0;fontSize=5;endFill=0;endSize=4;entryX=-0.05;entryY=0.875;entryDx=0;entryDy=0;entryPerimeter=0;" edge="1" parent="1">
          <mxGeometry width="50" height="50" relative="1" as="geometry">
            <mxPoint x="332" y="540" as="sourcePoint" />
            <mxPoint x="420" y="625" as="targetPoint" />
            <Array as="points">
              <mxPoint x="332" y="625" />
            </Array>
          </mxGeometry>
        </mxCell>
        <mxCell id="hbV3hxeHcZxjDUzCkbi2-179" value="1" style="edgeLabel;html=1;align=center;verticalAlign=middle;resizable=0;points=[];fontSize=5;" vertex="1" connectable="0" parent="hbV3hxeHcZxjDUzCkbi2-178">
          <mxGeometry x="0.4462" y="-1" relative="1" as="geometry">
            <mxPoint x="30" as="offset" />
          </mxGeometry>
        </mxCell>
        <mxCell id="hbV3hxeHcZxjDUzCkbi2-180" value="&lt;font&gt;inbuf_re[2:0]&lt;/font&gt;" style="edgeLabel;html=1;align=center;verticalAlign=middle;resizable=0;points=[];fontSize=5;" vertex="1" connectable="0" parent="hbV3hxeHcZxjDUzCkbi2-178">
          <mxGeometry x="-0.5064" relative="1" as="geometry">
            <mxPoint x="40" y="43" as="offset" />
          </mxGeometry>
        </mxCell>
        <mxCell id="hbV3hxeHcZxjDUzCkbi2-181" value="" style="endArrow=openThin;html=1;rounded=0;fontSize=5;endFill=0;endSize=4;" edge="1" parent="1">
          <mxGeometry width="50" height="50" relative="1" as="geometry">
            <mxPoint x="336" y="530" as="sourcePoint" />
            <mxPoint x="420" y="610" as="targetPoint" />
            <Array as="points">
              <mxPoint x="336" y="610" />
            </Array>
          </mxGeometry>
        </mxCell>
        <mxCell id="hbV3hxeHcZxjDUzCkbi2-182" value="1" style="edgeLabel;html=1;align=center;verticalAlign=middle;resizable=0;points=[];fontSize=5;" vertex="1" connectable="0" parent="hbV3hxeHcZxjDUzCkbi2-181">
          <mxGeometry x="0.4462" y="-1" relative="1" as="geometry">
            <mxPoint as="offset" />
          </mxGeometry>
        </mxCell>
        <mxCell id="hbV3hxeHcZxjDUzCkbi2-183" value="&lt;font&gt;inbuf_we[2:0]&lt;/font&gt;" style="edgeLabel;html=1;align=center;verticalAlign=middle;resizable=0;points=[];fontSize=5;" vertex="1" connectable="0" parent="hbV3hxeHcZxjDUzCkbi2-181">
          <mxGeometry x="-0.5064" relative="1" as="geometry">
            <mxPoint x="34" y="38" as="offset" />
          </mxGeometry>
        </mxCell>
        <mxCell id="hbV3hxeHcZxjDUzCkbi2-184" value="&lt;font&gt;1&lt;/font&gt;" style="edgeLabel;html=1;align=center;verticalAlign=middle;resizable=0;points=[];fontSize=5;" vertex="1" connectable="0" parent="hbV3hxeHcZxjDUzCkbi2-181">
          <mxGeometry x="0.7357" y="-1" relative="1" as="geometry">
            <mxPoint x="2" y="-2" as="offset" />
          </mxGeometry>
        </mxCell>
        <mxCell id="hbV3hxeHcZxjDUzCkbi2-185" value="" style="endArrow=openThin;html=1;rounded=0;fontSize=5;endFill=0;endSize=4;exitX=1;exitY=0.75;exitDx=0;exitDy=0;" edge="1" parent="1" source="hbV3hxeHcZxjDUzCkbi2-5">
          <mxGeometry width="50" height="50" relative="1" as="geometry">
            <mxPoint x="670" y="594" as="sourcePoint" />
            <mxPoint x="280" y="590" as="targetPoint" />
            <Array as="points">
              <mxPoint x="670" y="470" />
              <mxPoint x="710" y="470" />
              <mxPoint x="710" y="564" />
              <mxPoint x="710" y="660" />
              <mxPoint x="280" y="660" />
            </Array>
          </mxGeometry>
        </mxCell>
        <mxCell id="hbV3hxeHcZxjDUzCkbi2-186" value="mac_out[47:32]" style="edgeLabel;html=1;align=center;verticalAlign=middle;resizable=0;points=[];fontSize=5;" vertex="1" connectable="0" parent="hbV3hxeHcZxjDUzCkbi2-185">
          <mxGeometry x="-0.4066" relative="1" as="geometry">
            <mxPoint x="2" as="offset" />
          </mxGeometry>
        </mxCell>
        <mxCell id="hbV3hxeHcZxjDUzCkbi2-187" value="32" style="edgeLabel;html=1;align=center;verticalAlign=middle;resizable=0;points=[];fontSize=5;" vertex="1" connectable="0" parent="hbV3hxeHcZxjDUzCkbi2-185">
          <mxGeometry x="0.4462" y="-1" relative="1" as="geometry">
            <mxPoint as="offset" />
          </mxGeometry>
        </mxCell>
        <mxCell id="hbV3hxeHcZxjDUzCkbi2-188" value="" style="endArrow=openThin;html=1;rounded=0;fontSize=5;endFill=0;endSize=4;exitX=1;exitY=0.5;exitDx=0;exitDy=0;" edge="1" parent="1" source="hbV3hxeHcZxjDUzCkbi2-5">
          <mxGeometry width="50" height="50" relative="1" as="geometry">
            <mxPoint x="650" y="469.52" as="sourcePoint" />
            <mxPoint x="290" y="570" as="targetPoint" />
            <Array as="points">
              <mxPoint x="680" y="460" />
              <mxPoint x="720" y="460" />
              <mxPoint x="720" y="563.52" />
              <mxPoint x="720" y="649.52" />
              <mxPoint x="290" y="650.52" />
            </Array>
          </mxGeometry>
        </mxCell>
        <mxCell id="hbV3hxeHcZxjDUzCkbi2-189" value="mac_out[31:18]" style="edgeLabel;html=1;align=center;verticalAlign=middle;resizable=0;points=[];fontSize=5;" vertex="1" connectable="0" parent="hbV3hxeHcZxjDUzCkbi2-188">
          <mxGeometry x="-0.4066" relative="1" as="geometry">
            <mxPoint x="2" as="offset" />
          </mxGeometry>
        </mxCell>
        <mxCell id="hbV3hxeHcZxjDUzCkbi2-190" value="32" style="edgeLabel;html=1;align=center;verticalAlign=middle;resizable=0;points=[];fontSize=5;" vertex="1" connectable="0" parent="hbV3hxeHcZxjDUzCkbi2-188">
          <mxGeometry x="0.4462" y="-1" relative="1" as="geometry">
            <mxPoint as="offset" />
          </mxGeometry>
        </mxCell>
        <mxCell id="hbV3hxeHcZxjDUzCkbi2-191" value="" style="endArrow=openThin;html=1;rounded=0;fontSize=5;endFill=0;endSize=4;exitX=1;exitY=0.25;exitDx=0;exitDy=0;" edge="1" parent="1" source="hbV3hxeHcZxjDUzCkbi2-5">
          <mxGeometry width="50" height="50" relative="1" as="geometry">
            <mxPoint x="670" y="450" as="sourcePoint" />
            <mxPoint x="300" y="554" as="targetPoint" />
            <Array as="points">
              <mxPoint x="690" y="450" />
              <mxPoint x="730" y="450" />
              <mxPoint x="730" y="554" />
              <mxPoint x="730" y="640" />
              <mxPoint x="300" y="640" />
            </Array>
          </mxGeometry>
        </mxCell>
        <mxCell id="hbV3hxeHcZxjDUzCkbi2-192" value="mac_out[17:0]" style="edgeLabel;html=1;align=center;verticalAlign=middle;resizable=0;points=[];fontSize=5;" vertex="1" connectable="0" parent="hbV3hxeHcZxjDUzCkbi2-191">
          <mxGeometry x="-0.4066" relative="1" as="geometry">
            <mxPoint x="2" as="offset" />
          </mxGeometry>
        </mxCell>
        <mxCell id="hbV3hxeHcZxjDUzCkbi2-193" value="32" style="edgeLabel;html=1;align=center;verticalAlign=middle;resizable=0;points=[];fontSize=5;" vertex="1" connectable="0" parent="hbV3hxeHcZxjDUzCkbi2-191">
          <mxGeometry x="0.4462" y="-1" relative="1" as="geometry">
            <mxPoint as="offset" />
          </mxGeometry>
        </mxCell>
        <mxCell id="hbV3hxeHcZxjDUzCkbi2-194" value="" style="endArrow=openThin;html=1;rounded=0;fontSize=5;endFill=0;endSize=4;exitX=1;exitY=0.5;exitDx=0;exitDy=0;entryX=0.5;entryY=1;entryDx=0;entryDy=0;" edge="1" parent="1" source="hbV3hxeHcZxjDUzCkbi2-3" target="hbV3hxeHcZxjDUzCkbi2-203">
          <mxGeometry width="50" height="50" relative="1" as="geometry">
            <mxPoint x="470" y="620" as="sourcePoint" />
            <mxPoint x="480" y="510" as="targetPoint" />
            <Array as="points">
              <mxPoint x="480" y="610" />
            </Array>
          </mxGeometry>
        </mxCell>
        <mxCell id="hbV3hxeHcZxjDUzCkbi2-195" value="&lt;div&gt;inbuf_data[31:16]&lt;/div&gt;" style="edgeLabel;html=1;align=center;verticalAlign=middle;resizable=0;points=[];fontSize=5;rotation=-90;" vertex="1" connectable="0" parent="hbV3hxeHcZxjDUzCkbi2-194">
          <mxGeometry x="-0.4066" relative="1" as="geometry">
            <mxPoint y="-21" as="offset" />
          </mxGeometry>
        </mxCell>
        <mxCell id="hbV3hxeHcZxjDUzCkbi2-196" value="16" style="edgeLabel;html=1;align=center;verticalAlign=middle;resizable=0;points=[];fontSize=5;" vertex="1" connectable="0" parent="hbV3hxeHcZxjDUzCkbi2-194">
          <mxGeometry x="0.4462" y="-1" relative="1" as="geometry">
            <mxPoint x="17" as="offset" />
          </mxGeometry>
        </mxCell>
        <mxCell id="hbV3hxeHcZxjDUzCkbi2-197" value="" style="endArrow=openThin;html=1;rounded=0;fontSize=5;endFill=0;endSize=4;exitX=1;exitY=0.75;exitDx=0;exitDy=0;" edge="1" parent="1" source="hbV3hxeHcZxjDUzCkbi2-3">
          <mxGeometry width="50" height="50" relative="1" as="geometry">
            <mxPoint x="460" y="579.52" as="sourcePoint" />
            <mxPoint x="490" y="469.52" as="targetPoint" />
            <Array as="points">
              <mxPoint x="490" y="620" />
            </Array>
          </mxGeometry>
        </mxCell>
        <mxCell id="hbV3hxeHcZxjDUzCkbi2-198" value="inbuf_data[15:0]" style="edgeLabel;html=1;align=center;verticalAlign=middle;resizable=0;points=[];fontSize=5;rotation=-90;" vertex="1" connectable="0" parent="hbV3hxeHcZxjDUzCkbi2-197">
          <mxGeometry x="-0.4066" relative="1" as="geometry">
            <mxPoint y="-21" as="offset" />
          </mxGeometry>
        </mxCell>
        <mxCell id="hbV3hxeHcZxjDUzCkbi2-199" value="32" style="edgeLabel;html=1;align=center;verticalAlign=middle;resizable=0;points=[];fontSize=5;" vertex="1" connectable="0" parent="hbV3hxeHcZxjDUzCkbi2-197">
          <mxGeometry x="0.4462" y="-1" relative="1" as="geometry">
            <mxPoint x="17" as="offset" />
          </mxGeometry>
        </mxCell>
        <mxCell id="hbV3hxeHcZxjDUzCkbi2-202" value="&lt;font style=&quot;font-size: 5px;&quot;&gt;mux&lt;/font&gt;" style="whiteSpace=wrap;html=1;aspect=fixed;" vertex="1" parent="1">
          <mxGeometry x="464.52" y="535.76" width="10.48" height="10.48" as="geometry" />
        </mxCell>
        <mxCell id="hbV3hxeHcZxjDUzCkbi2-204" value="" style="endArrow=openThin;html=1;rounded=0;fontSize=5;endFill=0;endSize=4;exitX=0.5;exitY=1;exitDx=0;exitDy=0;entryX=0.5;entryY=0;entryDx=0;entryDy=0;" edge="1" parent="1" source="hbV3hxeHcZxjDUzCkbi2-4" target="hbV3hxeHcZxjDUzCkbi2-203">
          <mxGeometry width="50" height="50" relative="1" as="geometry">
            <mxPoint x="480" y="420" as="sourcePoint" />
            <mxPoint x="500" y="510" as="targetPoint" />
            <Array as="points" />
          </mxGeometry>
        </mxCell>
        <mxCell id="hbV3hxeHcZxjDUzCkbi2-205" value="&lt;font style=&quot;font-size: 3px;&quot;&gt;kbuf_data[31:16]&lt;/font&gt;" style="edgeLabel;html=1;align=center;verticalAlign=middle;resizable=0;points=[];rotation=-90;fontSize=5;" vertex="1" connectable="0" parent="hbV3hxeHcZxjDUzCkbi2-204">
          <mxGeometry x="-0.0497" y="-1" relative="1" as="geometry">
            <mxPoint x="-3" y="-27" as="offset" />
          </mxGeometry>
        </mxCell>
        <mxCell id="hbV3hxeHcZxjDUzCkbi2-203" value="&lt;font style=&quot;font-size: 5px;&quot;&gt;mux&lt;/font&gt;" style="whiteSpace=wrap;html=1;aspect=fixed;" vertex="1" parent="1">
          <mxGeometry x="475" y="505" width="10.48" height="10.48" as="geometry" />
        </mxCell>
        <mxCell id="hbV3hxeHcZxjDUzCkbi2-209" value="&lt;font style=&quot;font-size: 5px;&quot;&gt;mux&lt;/font&gt;" style="whiteSpace=wrap;html=1;aspect=fixed;" vertex="1" parent="1">
          <mxGeometry x="484.04" y="460" width="10.48" height="10.48" as="geometry" />
        </mxCell>
        <mxCell id="hbV3hxeHcZxjDUzCkbi2-212" value="&lt;font style=&quot;font-size: 3px;&quot;&gt;kbuf_data[48:32]&lt;/font&gt;" style="edgeLabel;html=1;align=center;verticalAlign=middle;resizable=0;points=[];rotation=-90;fontSize=5;" vertex="1" connectable="0" parent="1">
          <mxGeometry x="464.5239018372061" y="433.3116457723586" as="geometry" />
        </mxCell>
      </root>
    </mxGraphModel>
  </diagram>
</mxfile>
